<svg width="124" height="150" viewBox="0 0 124 150" fill="none" xmlns="http://www.w3.org/2000/svg">
<g filter="url(#filter0_f)">
<ellipse cx="62.4277" cy="138.206" rx="55.5" ry="6" fill="#D9BAAD"/>
</g>
<path d="M48.0656 38.3682H48.0622C47.2949 38.3682 46.6729 38.9919 46.6729 39.7613V49.9158C46.6729 50.6852 47.2949 51.3089 48.0622 51.3089H48.0656C48.8329 51.3089 49.4549 50.6852 49.4549 49.9158V39.7613C49.4549 38.9919 48.8329 38.3682 48.0656 38.3682Z" fill="#191919"/>
<g filter="url(#filter1_i)">
<g filter="url(#filter2_i)">
<path d="M47.8499 19.5347C47.8499 19.5347 15.3462 9.75031 4.92652 20.6633C4.2171 21.4028 3.67544 22.2869 3.33834 23.2554C2.86134 24.6408 2.83077 26.142 3.25095 27.5479C4.7376 32.4361 15.2011 43.4731 31.4236 47.4985L46.4816 31.7764L47.8499 19.5347Z" fill="#FFC368"/>
<path d="M42.4444 23.573C42.4444 23.573 18.451 16.6085 11.7996 23.573C11.3479 24.0441 11.0035 24.6076 10.7899 25.2249C10.4837 26.107 10.4643 27.0641 10.7344 27.9593C11.6706 31.0723 18.3485 38.1126 28.6896 40.6768L38.2893 30.655L42.4444 23.573Z" fill="#FFE1DB"/>
<path d="M76.1506 19.5347C76.1506 19.5347 108.654 9.75031 119.074 20.6633C119.783 21.4028 120.325 22.2869 120.662 23.2554C121.139 24.6408 121.17 26.142 120.75 27.5479C119.263 32.4361 108.799 43.4731 92.5769 47.4985L77.5189 31.7764L76.1506 19.5347Z" fill="#FFC368"/>
<path d="M81.5561 23.573C81.5561 23.573 105.549 16.6085 112.201 23.573C112.653 24.0441 112.997 24.6076 113.211 25.2249C113.517 26.107 113.536 27.0641 113.266 27.9593C112.33 31.0723 105.652 38.1126 95.3108 40.6768L85.7112 30.655L81.5561 23.573Z" fill="#FFE1DB"/>
</g>
</g>
<g filter="url(#filter3_i)">
<path d="M81.6052 130.467C81.4568 130.981 81.3813 131.513 81.3809 132.048C81.3809 133.582 81.9885 135.054 83.0702 136.139C84.1519 137.224 85.6191 137.835 87.1493 137.835H102.821C103.579 137.835 104.329 137.686 105.029 137.395C105.729 137.104 106.365 136.678 106.901 136.14C107.436 135.603 107.861 134.965 108.151 134.263C108.441 133.56 108.59 132.808 108.589 132.048C108.589 130.605 108.05 129.213 107.079 128.148C106.107 127.083 104.774 126.42 103.34 126.291C106.011 125.087 108.347 123.243 110.139 120.92C111.948 118.594 113.125 115.838 113.554 112.921C114.632 105.394 113.169 96.4551 111.06 89.7246L109.808 85.7232C108.84 82.6285 108.168 79.4487 107.799 76.2266L106.818 67.6732C106.421 64.2148 105.806 60.7851 104.977 57.4045L102.476 47.2063H102.382C101.006 29.5156 83.9185 15.5342 63.0378 15.5342C62.6829 15.5342 62.328 15.5342 61.9731 15.5342C61.6183 15.5342 61.2634 15.5342 60.9085 15.5342C40.0277 15.5342 22.9401 29.5156 21.5641 47.2063H21.4637L18.9628 57.4045C18.1338 60.7851 17.5188 64.2148 17.1215 67.6732L16.1406 76.2266C15.7721 79.4487 15.0995 82.6285 14.1318 85.7232L12.873 89.7246C10.7639 96.4383 9.30082 105.394 10.3755 112.921C10.8065 115.838 11.9829 118.594 13.7903 120.92C15.585 123.242 17.9211 125.086 20.5933 126.291C19.1593 126.42 17.8255 127.083 16.854 128.148C15.8826 129.213 15.3438 130.605 15.3438 132.048C15.3433 132.808 15.4922 133.56 15.7819 134.263C16.0716 134.965 16.4964 135.603 17.0321 136.14C17.5678 136.678 18.2038 137.104 18.9039 137.395C19.604 137.686 20.3544 137.835 21.1122 137.835H36.797C38.3278 137.835 39.7959 137.226 40.8783 136.14C41.9607 135.055 42.5688 133.583 42.5688 132.048C42.5683 131.513 42.4928 130.981 42.3445 130.467L55.0665 132.112C60.48 132.948 64.3133 133.085 69.4222 132.112L81.6052 130.467Z" fill="#FFC368"/>
<path fill-rule="evenodd" clip-rule="evenodd" d="M81.3808 132.048C81.3813 131.513 81.4568 130.981 81.6051 130.467L69.4222 132.112C64.3133 133.086 60.48 132.948 55.0664 132.112L42.3445 130.467C42.4928 130.981 42.5683 131.513 42.5688 132.048C42.5688 133.583 41.9607 135.055 40.8783 136.14C39.7959 137.226 38.3278 137.835 36.797 137.835H21.1122C20.3544 137.835 19.604 137.686 18.9039 137.395C18.2038 137.104 17.5678 136.678 17.0321 136.14C16.4964 135.603 16.0716 134.965 15.7819 134.263C15.4922 133.561 15.3433 132.808 15.3438 132.048C15.3438 130.605 15.8826 129.213 16.854 128.148C17.8255 127.083 19.1593 126.42 20.5932 126.291C20.5924 126.291 20.5916 126.29 20.5908 126.29C33.0773 125.709 58.5513 122.915 55.6013 109.742C53.7615 101.501 44.8752 94.3121 38.4927 89.1487L38.4926 89.1486C35.8977 87.0494 33.7167 85.285 32.5913 83.9208C30.9964 81.9896 28.7085 76.7074 26.7962 72.2925L26.7961 72.2924C26.3682 71.3045 25.9591 70.3601 25.5808 69.5063C24.6354 67.3759 23.3434 65.4179 21.7576 63.7123L18.3575 60.0614C18.4755 59.5008 18.5994 58.9415 18.7291 58.3834C26.2706 59.7317 49.6457 63.122 55.0223 54.4884C55.0223 54.4884 56.932 50.1624 57.5447 45.4797C57.6545 44.6411 57.7439 43.791 57.8322 42.9523L57.8322 42.9519C58.3289 38.2328 58.7876 33.8736 62.6071 33.9362C66.4266 33.8736 66.8854 38.2328 67.382 42.9519L67.3821 42.9523C67.4703 43.791 67.5598 44.6411 67.6695 45.4797C68.2823 50.1624 70.192 54.4884 70.192 54.4884C75.3038 62.6967 96.6845 60.0365 105.26 58.5958C105.457 59.4559 105.641 60.319 105.811 61.1848L103.457 63.7123C101.871 65.4179 100.579 67.3759 99.6334 69.5063C99.2551 70.3601 98.846 71.3046 98.4181 72.2925C96.5058 76.7074 94.2179 81.9896 92.6229 83.9208C91.4975 85.285 89.3165 87.0494 86.7216 89.1486L86.7216 89.1487C80.3391 94.3121 71.4528 101.501 69.6129 109.742C66.7511 122.521 90.6394 125.533 103.47 126.232C103.427 126.252 103.383 126.272 103.34 126.291C104.774 126.42 106.107 127.083 107.079 128.148C108.05 129.213 108.589 130.605 108.589 132.048C108.59 132.808 108.441 133.561 108.151 134.263C107.861 134.965 107.436 135.603 106.901 136.14C106.365 136.678 105.729 137.104 105.029 137.395C104.329 137.686 103.579 137.835 102.821 137.835H87.1492C85.6191 137.835 84.1519 137.224 83.0702 136.139C81.9885 135.054 81.3808 133.583 81.3808 132.048Z" fill="#FFEED6"/>
</g>
<g filter="url(#filter4_di)">
<path d="M31.3272 119.745V125.787C29.8869 126.443 28.7134 127.572 28.0018 128.989C27.2902 130.405 27.0831 132.023 27.4151 133.574C27.7471 135.124 28.5981 136.514 29.8268 137.513C31.0555 138.512 32.5879 139.059 34.1696 139.064H48.8367C50.675 139.063 52.4377 138.33 53.7372 137.026C55.0368 135.723 55.7668 133.955 55.7668 132.112V113.031L31.3272 119.745Z" fill="#FFFDF8"/>
</g>
<g filter="url(#filter5_di)">
<path d="M93.8212 119.745V125.787C95.2686 126.438 96.4498 127.566 97.1674 128.985C97.8851 130.403 98.0957 132.025 97.7643 133.581C97.4328 135.136 96.5792 136.53 95.3461 137.531C94.113 138.531 92.575 139.077 90.9888 139.077H76.3217C74.4834 139.076 72.7207 138.344 71.4212 137.04C70.1216 135.736 69.3916 133.968 69.3916 132.125V113.031L93.8212 119.745Z" fill="#FFFDF8"/>
</g>
<path d="M51.4742 38.4355H51.4708C50.6758 38.4355 50.0312 39.0818 50.0312 39.879V49.9329C50.0312 50.7301 50.6758 51.3763 51.4708 51.3763H51.4742C52.2693 51.3763 52.9138 50.7301 52.9138 49.9329V39.879C52.9138 39.0818 52.2693 38.4355 51.4742 38.4355Z" fill="#231D14"/>
<path d="M73.0943 38.4355H73.091C72.2959 38.4355 71.6514 39.0818 71.6514 39.879V49.9329C71.6514 50.7301 72.2959 51.3763 73.091 51.3763H73.0943C73.8894 51.3763 74.5339 50.7301 74.5339 49.9329V39.879C74.5339 39.0818 73.8894 38.4355 73.0943 38.4355Z" fill="#231D14"/>
<path d="M62.1229 55.6095L57.0113 52.6458C56.8854 52.5717 56.7866 52.4566 56.7304 52.3184C56.6741 52.1801 56.6635 52.0265 56.7001 51.8813C56.7368 51.7361 56.8187 51.6076 56.9331 51.5157C57.0475 51.4238 57.188 51.3736 57.3327 51.373H67.5559C67.7006 51.3736 67.8411 51.4238 67.9555 51.5157C68.0699 51.6076 68.1518 51.7361 68.1884 51.8813C68.2251 52.0265 68.2145 52.1801 68.1582 52.3184C68.1019 52.4566 68.0032 52.5717 67.8773 52.6458L62.7657 55.6095C62.6676 55.667 62.5569 55.6972 62.4443 55.6972C62.3316 55.6972 62.2209 55.667 62.1229 55.6095Z" fill="#231D14"/>
<path d="M57.5459 63.498H67.4211C68.6733 63.498 69.5683 62.3517 68.9244 61.2777C67.9506 59.6534 66.0075 57.7325 62.2636 57.7325C58.3855 57.7325 56.6973 59.7935 55.9666 61.4511C55.5013 62.5067 56.3922 63.498 57.5459 63.498Z" fill="#FFAAAA"/>
<g filter="url(#filter6_d)">
<path d="M73.6931 52.6636C74.0571 52.0332 74.9671 52.0332 75.3311 52.6636L77.6931 56.7548C78.5661 58.2668 78.2541 60.1843 76.9468 61.3416C75.5569 62.572 73.4673 62.572 72.0774 61.3416C70.7702 60.1843 70.4582 58.2668 71.3311 56.7548L73.6931 52.6636Z" fill="#B1E9FB"/>
<path d="M73.6931 52.6636C74.0571 52.0332 74.9671 52.0332 75.3311 52.6636L77.6931 56.7548C78.5661 58.2668 78.2541 60.1843 76.9468 61.3416C75.5569 62.572 73.4673 62.572 72.0774 61.3416C70.7702 60.1843 70.4582 58.2668 71.3311 56.7548L73.6931 52.6636Z" fill="url(#paint0_radial)"/>
</g>
<defs>
<filter id="filter0_f" x="1.92773" y="127.206" width="121" height="22" filterUnits="userSpaceOnUse" color-interpolation-filters="sRGB">
<feFlood flood-opacity="0" result="BackgroundImageFix"/>
<feBlend mode="normal" in="SourceGraphic" in2="BackgroundImageFix" result="shape"/>
<feGaussianBlur stdDeviation="2.5" result="effect1_foregroundBlur"/>
</filter>
<filter id="filter1_i" x="2.95654" y="13.502" width="118.087" height="33.9961" filterUnits="userSpaceOnUse" color-interpolation-filters="sRGB">
<feFlood flood-opacity="0" result="BackgroundImageFix"/>
<feBlend mode="normal" in="SourceGraphic" in2="BackgroundImageFix" result="shape"/>
<feColorMatrix in="SourceAlpha" type="matrix" values="0 0 0 0 0 0 0 0 0 0 0 0 0 0 0 0 0 0 127 0" result="hardAlpha"/>
<feOffset dy="-2"/>
<feGaussianBlur stdDeviation="4"/>
<feComposite in2="hardAlpha" operator="arithmetic" k2="-1" k3="1"/>
<feColorMatrix type="matrix" values="0 0 0 0 1 0 0 0 0 0.681882 0 0 0 0 0.388235 0 0 0 1 0"/>
<feBlend mode="multiply" in2="shape" result="effect1_innerShadow"/>
</filter>
<filter id="filter2_i" x="2.95654" y="12.502" width="118.087" height="34.9961" filterUnits="userSpaceOnUse" color-interpolation-filters="sRGB">
<feFlood flood-opacity="0" result="BackgroundImageFix"/>
<feBlend mode="normal" in="SourceGraphic" in2="BackgroundImageFix" result="shape"/>
<feColorMatrix in="SourceAlpha" type="matrix" values="0 0 0 0 0 0 0 0 0 0 0 0 0 0 0 0 0 0 127 0" result="hardAlpha"/>
<feOffset dy="-3"/>
<feGaussianBlur stdDeviation="13.5"/>
<feComposite in2="hardAlpha" operator="arithmetic" k2="-1" k3="1"/>
<feColorMatrix type="matrix" values="0 0 0 0 1 0 0 0 0 0.67451 0 0 0 0 0.286275 0 0 0 0.18 0"/>
<feBlend mode="multiply" in2="shape" result="effect1_innerShadow"/>
</filter>
<filter id="filter3_i" x="6.01367" y="15.5342" width="107.904" height="122.302" filterUnits="userSpaceOnUse" color-interpolation-filters="sRGB">
<feFlood flood-opacity="0" result="BackgroundImageFix"/>
<feBlend mode="normal" in="SourceGraphic" in2="BackgroundImageFix" result="shape"/>
<feColorMatrix in="SourceAlpha" type="matrix" values="0 0 0 0 0 0 0 0 0 0 0 0 0 0 0 0 0 0 127 0" result="hardAlpha"/>
<feOffset dx="-4"/>
<feGaussianBlur stdDeviation="11.5"/>
<feComposite in2="hardAlpha" operator="arithmetic" k2="-1" k3="1"/>
<feColorMatrix type="matrix" values="0 0 0 0 1 0 0 0 0 0.706953 0 0 0 0 0.2625 0 0 0 1 0"/>
<feBlend mode="multiply" in2="shape" result="effect1_innerShadow"/>
</filter>
<filter id="filter4_di" x="24.2607" y="111.031" width="32.5059" height="31.0322" filterUnits="userSpaceOnUse" color-interpolation-filters="sRGB">
<feFlood flood-opacity="0" result="BackgroundImageFix"/>
<feColorMatrix in="SourceAlpha" type="matrix" values="0 0 0 0 0 0 0 0 0 0 0 0 0 0 0 0 0 0 127 0" result="hardAlpha"/>
<feOffset dx="-1" dy="1"/>
<feGaussianBlur stdDeviation="1"/>
<feColorMatrix type="matrix" values="0 0 0 0 1 0 0 0 0 0.737255 0 0 0 0 0.372549 0 0 0 0.32 0"/>
<feBlend mode="multiply" in2="BackgroundImageFix" result="effect1_dropShadow"/>
<feBlend mode="normal" in="SourceGraphic" in2="effect1_dropShadow" result="shape"/>
<feColorMatrix in="SourceAlpha" type="matrix" values="0 0 0 0 0 0 0 0 0 0 0 0 0 0 0 0 0 0 127 0" result="hardAlpha"/>
<feOffset dx="-1" dy="-2"/>
<feGaussianBlur stdDeviation="4.5"/>
<feComposite in2="hardAlpha" operator="arithmetic" k2="-1" k3="1"/>
<feColorMatrix type="matrix" values="0 0 0 0 1 0 0 0 0 0.764706 0 0 0 0 0.407843 0 0 0 0.44 0"/>
<feBlend mode="normal" in2="shape" result="effect2_innerShadow"/>
</filter>
<filter id="filter5_di" x="68.3916" y="111.031" width="32.5259" height="31.0459" filterUnits="userSpaceOnUse" color-interpolation-filters="sRGB">
<feFlood flood-opacity="0" result="BackgroundImageFix"/>
<feColorMatrix in="SourceAlpha" type="matrix" values="0 0 0 0 0 0 0 0 0 0 0 0 0 0 0 0 0 0 127 0" result="hardAlpha"/>
<feOffset dx="1" dy="1"/>
<feGaussianBlur stdDeviation="1"/>
<feColorMatrix type="matrix" values="0 0 0 0 1 0 0 0 0 0.737255 0 0 0 0 0.372549 0 0 0 0.32 0"/>
<feBlend mode="multiply" in2="BackgroundImageFix" result="effect1_dropShadow"/>
<feBlend mode="normal" in="SourceGraphic" in2="effect1_dropShadow" result="shape"/>
<feColorMatrix in="SourceAlpha" type="matrix" values="0 0 0 0 0 0 0 0 0 0 0 0 0 0 0 0 0 0 127 0" result="hardAlpha"/>
<feOffset dx="-1" dy="-2"/>
<feGaussianBlur stdDeviation="4.5"/>
<feComposite in2="hardAlpha" operator="arithmetic" k2="-1" k3="1"/>
<feColorMatrix type="matrix" values="0 0 0 0 1 0 0 0 0 0.764706 0 0 0 0 0.407843 0 0 0 0.44 0"/>
<feBlend mode="normal" in2="shape" result="effect2_innerShadow"/>
</filter>
<filter id="filter6_d" x="69.8389" y="52.1904" width="9.34668" height="12.0742" filterUnits="userSpaceOnUse" color-interpolation-filters="sRGB">
<feFlood flood-opacity="0" result="BackgroundImageFix"/>
<feColorMatrix in="SourceAlpha" type="matrix" values="0 0 0 0 0 0 0 0 0 0 0 0 0 0 0 0 0 0 127 0" result="hardAlpha"/>
<feOffset dy="1"/>
<feGaussianBlur stdDeviation="0.5"/>
<feColorMatrix type="matrix" values="0 0 0 0 0 0 0 0 0 0 0 0 0 0 0 0 0 0 0.23 0"/>
<feBlend mode="multiply" in2="BackgroundImageFix" result="effect1_dropShadow"/>
<feBlend mode="normal" in="SourceGraphic" in2="effect1_dropShadow" result="shape"/>
</filter>
<radialGradient id="paint0_radial" cx="0" cy="0" r="1" gradientUnits="userSpaceOnUse" gradientTransform="translate(74.5121 57.371) rotate(90) scale(6.12592 4.68106)">
<stop stop-color="white" stop-opacity="0.44"/>
<stop offset="1" stop-color="white" stop-opacity="0"/>
</radialGradient>
</defs>
</svg>
