<svg width="85" height="100" viewBox="0 0 85 100" fill="none" xmlns="http://www.w3.org/2000/svg">
<g filter="url(#filter0_f)">
<ellipse cx="42.5" cy="91" rx="37.5" ry="4" fill="#B6B2B0"/>
</g>
<path d="M33.0058 20.5264H33.0034C32.4588 20.5264 32.0173 20.969 32.0173 21.5151V28.7218C32.0173 29.2678 32.4588 29.7105 33.0034 29.7105H33.0058C33.5503 29.7105 33.9918 29.2678 33.9918 28.7218V21.5151C33.9918 20.969 33.5503 20.5264 33.0058 20.5264Z" fill="#191919"/>
<g filter="url(#filter1_i)">
<g filter="url(#filter2_i)">
<path d="M29.9003 6.48203C29.9003 6.48203 20.6481 -1.79437 10.1581 0.356924C9.4453 0.501323 8.77189 0.797899 8.18361 1.22649C7.34521 1.84156 6.72031 2.70479 6.39686 3.69464C5.28727 7.14672 6.92671 17.815 14.7604 26.7228L29.9003 23.6423V6.48203Z" fill="#FFC368"/>
<path d="M25.5832 8.73795C25.5832 8.73795 19.6859 3.46097 12.9904 4.83323C12.5364 4.92531 12.1076 5.11466 11.7334 5.38832C11.1982 5.77898 10.7998 6.32934 10.5953 6.96069C9.88254 9.15487 10.9304 15.9613 15.9247 21.6386L25.576 19.6755L25.5832 8.73795Z" fill="#FFE1DB"/>
</g>
<g filter="url(#filter3_i)">
<path d="M56.3501 6.48203C56.3501 6.48203 65.6023 -1.79437 76.0923 0.356924C76.8051 0.501323 77.4785 0.797899 78.0668 1.22649C78.9052 1.841 79.5295 2.70451 79.8511 3.69464C80.9607 7.13481 79.3237 17.815 71.49 26.7228L56.3501 23.6423V6.48203Z" fill="#FFC368"/>
<path d="M60.6672 8.73795C60.6672 8.73795 66.5645 3.46097 73.26 4.83323C73.714 4.92531 74.1428 5.11466 74.517 5.38832C75.0522 5.77898 75.4506 6.32934 75.6551 6.96069C76.3679 9.15487 75.32 15.9613 70.3257 21.6386L60.6744 19.6755L60.6672 8.73795Z" fill="#FFE1DB"/>
</g>
</g>
<g filter="url(#filter4_i)">
<path d="M56.8086 85.8894C56.7034 86.2541 56.6498 86.6318 56.6494 87.0115C56.6494 88.1004 57.0807 89.1447 57.8483 89.9149C58.616 90.6851 59.6573 91.1181 60.7433 91.1187H71.8653C72.4032 91.1187 72.9357 91.0124 73.4325 90.806C73.9294 90.5996 74.3808 90.297 74.761 89.9156C75.1412 89.5341 75.4427 89.0813 75.6483 88.583C75.8538 88.0847 75.9595 87.5507 75.9592 87.0115C75.9591 85.987 75.5768 84.9996 74.8873 84.2435C74.1979 83.4874 73.2513 83.0173 72.2336 82.9257C74.1298 82.0714 75.7871 80.7623 77.0593 79.1139C78.343 77.4633 79.178 75.5073 79.4828 73.4366C80.2479 68.0953 79.2096 61.751 77.7127 56.9744L76.8241 54.1346C76.1373 51.9382 75.66 49.6815 75.3985 47.3948L74.7023 41.3245C74.4203 38.8701 73.9839 36.436 73.3955 34.0368L71.6206 26.7991H71.5541C70.5775 14.2439 58.4504 4.32129 43.6313 4.32129C43.3795 4.32129 43.1276 4.32129 42.8757 4.32129C42.6239 4.32129 42.372 4.32129 42.1202 4.32129C27.301 4.32129 15.1739 14.2439 14.1974 26.7991H14.1261L12.3512 34.0368C11.7629 36.436 11.3264 38.8701 11.0444 41.3245L10.3483 47.3948C10.0867 49.6815 9.6094 51.9382 8.92266 54.1346L8.02929 56.9744C6.5324 61.7391 5.49409 68.0953 6.25679 73.4366C6.56268 75.507 7.39757 77.4628 8.68031 79.1139C9.95398 80.7618 11.6119 82.0708 13.5083 82.9257C12.4907 83.0173 11.5441 83.4874 10.8546 84.2435C10.1652 84.9996 9.78283 85.987 9.78278 87.0115C9.78246 87.5507 9.88812 88.0847 10.0937 88.583C10.2993 89.0813 10.6008 89.5341 10.981 89.9156C11.3612 90.297 11.8126 90.5996 12.3094 90.806C12.8063 91.0124 13.3388 91.1187 13.8766 91.1187H25.0082C26.0946 91.1187 27.1365 90.686 27.9047 89.9157C28.6729 89.1455 29.1044 88.1008 29.1044 87.0115C29.1041 86.6318 29.0505 86.2541 28.9452 85.8894L37.974 87.0567C41.816 87.6499 44.5366 87.7476 48.1623 87.0567L56.8086 85.8894Z" fill="#FFC368"/>
<path fill-rule="evenodd" clip-rule="evenodd" d="M56.6494 87.0116C56.6497 86.6319 56.7033 86.2542 56.8086 85.8895L48.1623 87.0568C44.5365 87.7477 41.816 87.65 37.974 87.0568L28.9452 85.8895C29.0504 86.2542 29.104 86.6319 29.1044 87.0116C29.1044 88.1009 28.6728 89.1455 27.9046 89.9158C27.1364 90.6861 26.0945 91.1188 25.0081 91.1188H13.8766C13.3388 91.1188 12.8062 91.0125 12.3094 90.8061C11.8125 90.5997 11.3611 90.2971 10.9809 89.9157C10.6008 89.5342 10.2993 89.0814 10.0937 88.5831C9.88806 88.0848 9.7824 87.5508 9.78272 87.0116C9.78278 85.9871 10.1651 84.9997 10.8546 84.2436C11.544 83.4875 12.4906 83.0174 13.5083 82.9258C13.5077 82.9255 13.5072 82.9253 13.5067 82.925C22.3684 82.5126 40.4473 80.5297 38.3537 71.1808C37.0479 65.3322 30.7413 60.2302 26.2116 56.5657C24.3701 55.0759 22.8222 53.8237 22.0234 52.8555C20.8915 51.4849 19.2678 47.7362 17.9106 44.6029L17.9106 44.6028L17.9105 44.6027C17.6069 43.9016 17.3166 43.2314 17.0481 42.6255C16.3771 41.1135 15.4602 39.7239 14.3347 38.5135L11.9216 35.9223C12.0053 35.5245 12.0933 35.1276 12.1853 34.7315C17.5374 35.6884 34.1269 38.0946 37.9428 31.9673C37.9428 31.9673 39.2981 28.8971 39.7329 25.5738C39.8108 24.9786 39.8743 24.3753 39.937 23.7801L39.937 23.7798C40.2894 20.4307 40.615 17.337 43.3257 17.3813C46.0364 17.337 46.3619 20.4307 46.7144 23.7798L46.7144 23.7801C46.7771 24.3753 46.8406 24.9786 46.9184 25.5738C47.3533 28.8971 48.7086 31.9673 48.7086 31.9673C52.3365 37.7927 67.5104 35.9048 73.5961 34.8823C73.7363 35.4927 73.8667 36.1053 73.9872 36.7197L72.3167 38.5135C71.1912 39.7239 70.2743 41.1135 69.6033 42.6255C69.3348 43.2314 69.0445 43.9017 68.7408 44.6029L68.7407 44.603C67.3836 47.7362 65.7598 51.485 64.6279 52.8555C63.8292 53.8237 62.2813 55.0759 60.4397 56.5657C55.91 60.2302 49.6035 65.3322 48.2977 71.1808C46.2667 80.2502 63.22 82.3875 72.326 82.8837C72.2952 82.8978 72.2644 82.9119 72.2336 82.9258C73.2512 83.0174 74.1978 83.4875 74.8873 84.2436C75.5767 84.9997 75.9591 85.9871 75.9591 87.0116C75.9594 87.5508 75.8538 88.0848 75.6482 88.5831C75.4426 89.0814 75.1411 89.5342 74.7609 89.9157C74.3807 90.2971 73.9293 90.5997 73.4325 90.8061C72.9356 91.0125 72.4031 91.1188 71.8653 91.1188H60.7432C59.6572 91.1182 58.616 90.6851 57.8483 89.915C57.0806 89.1448 56.6494 88.1004 56.6494 87.0116Z" fill="#FFEED6"/>
</g>
<g filter="url(#filter5_di)">
<path d="M21.1262 78.2794V82.5677C20.104 83.0328 19.2712 83.8345 18.7662 84.8397C18.2611 85.8449 18.1142 86.9931 18.3498 88.0936C18.5854 89.1941 19.1893 90.1806 20.0613 90.8894C20.9333 91.5982 22.0209 91.9866 23.1435 91.9901H33.5527C34.8574 91.9894 36.1084 91.4693 37.0306 90.5441C37.9529 89.6189 38.471 88.3643 38.471 87.0561V73.5146L21.1262 78.2794Z" fill="#FFFDF8"/>
</g>
<g filter="url(#filter6_di)">
<path d="M65.4786 78.2794V82.5677C66.5058 83.0293 67.3441 83.8303 67.8534 84.8369C68.3627 85.8435 68.5122 86.9948 68.277 88.0986C68.0418 89.2024 67.436 90.1919 66.5609 90.9019C65.6857 91.6118 64.5942 91.9993 63.4685 91.9996H53.0592C51.7546 91.999 50.5036 91.4788 49.5813 90.5536C48.659 89.6284 48.1409 88.3738 48.1409 87.0657V73.5146L65.4786 78.2794Z" fill="#FFFDF8"/>
</g>
<path d="M35.4244 20.5742H35.4221C34.8578 20.5742 34.4004 21.0329 34.4004 21.5986V28.7339C34.4004 29.2997 34.8578 29.7583 35.4221 29.7583H35.4244C35.9887 29.7583 36.4461 29.2997 36.4461 28.7339V21.5986C36.4461 21.0329 35.9887 20.5742 35.4244 20.5742Z" fill="#231D14"/>
<path d="M50.7689 20.5742H50.7666C50.2023 20.5742 49.7449 21.0329 49.7449 21.5986V28.7339C49.7449 29.2997 50.2023 29.7583 50.7666 29.7583H50.7689C51.3332 29.7583 51.7906 29.2997 51.7906 28.7339V21.5986C51.7906 21.0329 51.3332 20.5742 50.7689 20.5742Z" fill="#231D14"/>
<path d="M42.9824 32.7625L39.3547 30.6591C39.2653 30.6066 39.1953 30.5249 39.1553 30.4268C39.1154 30.3286 39.1078 30.2196 39.1338 30.1166C39.1599 30.0135 39.218 29.9223 39.2992 29.8571C39.3804 29.7919 39.4801 29.7563 39.5828 29.7559H46.8382C46.9409 29.7563 47.0406 29.7919 47.1218 29.8571C47.203 29.9223 47.2611 30.0135 47.2871 30.1166C47.3131 30.2196 47.3056 30.3286 47.2657 30.4268C47.2257 30.5249 47.1556 30.6066 47.0663 30.6591L43.4386 32.7625C43.369 32.8033 43.2904 32.8247 43.2105 32.8247C43.1306 32.8247 43.052 32.8033 42.9824 32.7625Z" fill="#231D14"/>
<path d="M46.9183 38.3588C46.9183 39.488 45.3153 39.3811 43.3379 39.3811C41.3605 39.3811 39.7576 39.488 39.7576 38.3588C39.7576 37.2297 41.3605 35.292 43.3379 35.292C45.3153 35.292 46.9183 37.2297 46.9183 38.3588Z" fill="#FFC4BB"/>
<defs>
<filter id="filter0_f" x="0" y="82" width="85" height="18" filterUnits="userSpaceOnUse" color-interpolation-filters="sRGB">
<feFlood flood-opacity="0" result="BackgroundImageFix"/>
<feBlend mode="normal" in="SourceGraphic" in2="BackgroundImageFix" result="shape"/>
<feGaussianBlur stdDeviation="2.5" result="effect1_foregroundBlur"/>
</filter>
<filter id="filter1_i" x="6.08496" y="-2" width="74.0783" height="28.7228" filterUnits="userSpaceOnUse" color-interpolation-filters="sRGB">
<feFlood flood-opacity="0" result="BackgroundImageFix"/>
<feBlend mode="normal" in="SourceGraphic" in2="BackgroundImageFix" result="shape"/>
<feColorMatrix in="SourceAlpha" type="matrix" values="0 0 0 0 0 0 0 0 0 0 0 0 0 0 0 0 0 0 127 0" result="hardAlpha"/>
<feOffset dy="-2"/>
<feGaussianBlur stdDeviation="4"/>
<feComposite in2="hardAlpha" operator="arithmetic" k2="-1" k3="1"/>
<feColorMatrix type="matrix" values="0 0 0 0 1 0 0 0 0 0.681882 0 0 0 0 0.388235 0 0 0 1 0"/>
<feBlend mode="multiply" in2="shape" result="effect1_innerShadow"/>
</filter>
<filter id="filter2_i" x="6.08496" y="-3" width="23.8153" height="29.7228" filterUnits="userSpaceOnUse" color-interpolation-filters="sRGB">
<feFlood flood-opacity="0" result="BackgroundImageFix"/>
<feBlend mode="normal" in="SourceGraphic" in2="BackgroundImageFix" result="shape"/>
<feColorMatrix in="SourceAlpha" type="matrix" values="0 0 0 0 0 0 0 0 0 0 0 0 0 0 0 0 0 0 127 0" result="hardAlpha"/>
<feOffset dy="-3"/>
<feGaussianBlur stdDeviation="13.5"/>
<feComposite in2="hardAlpha" operator="arithmetic" k2="-1" k3="1"/>
<feColorMatrix type="matrix" values="0 0 0 0 1 0 0 0 0 0.67451 0 0 0 0 0.286275 0 0 0 0.18 0"/>
<feBlend mode="multiply" in2="shape" result="effect1_innerShadow"/>
</filter>
<filter id="filter3_i" x="56.3501" y="-3" width="23.8132" height="29.7228" filterUnits="userSpaceOnUse" color-interpolation-filters="sRGB">
<feFlood flood-opacity="0" result="BackgroundImageFix"/>
<feBlend mode="normal" in="SourceGraphic" in2="BackgroundImageFix" result="shape"/>
<feColorMatrix in="SourceAlpha" type="matrix" values="0 0 0 0 0 0 0 0 0 0 0 0 0 0 0 0 0 0 127 0" result="hardAlpha"/>
<feOffset dy="-3"/>
<feGaussianBlur stdDeviation="13.5"/>
<feComposite in2="hardAlpha" operator="arithmetic" k2="-1" k3="1"/>
<feColorMatrix type="matrix" values="0 0 0 0 1 0 0 0 0 0.67451 0 0 0 0 0.286275 0 0 0 0.18 0"/>
<feBlend mode="multiply" in2="shape" result="effect1_innerShadow"/>
</filter>
<filter id="filter4_i" x="2" y="4.32129" width="77.7409" height="86.7975" filterUnits="userSpaceOnUse" color-interpolation-filters="sRGB">
<feFlood flood-opacity="0" result="BackgroundImageFix"/>
<feBlend mode="normal" in="SourceGraphic" in2="BackgroundImageFix" result="shape"/>
<feColorMatrix in="SourceAlpha" type="matrix" values="0 0 0 0 0 0 0 0 0 0 0 0 0 0 0 0 0 0 127 0" result="hardAlpha"/>
<feOffset dx="-4"/>
<feGaussianBlur stdDeviation="11.5"/>
<feComposite in2="hardAlpha" operator="arithmetic" k2="-1" k3="1"/>
<feColorMatrix type="matrix" values="0 0 0 0 1 0 0 0 0 0.706953 0 0 0 0 0.2625 0 0 0 1 0"/>
<feBlend mode="multiply" in2="shape" result="effect1_innerShadow"/>
</filter>
<filter id="filter5_di" x="15.2402" y="71.5146" width="24.2308" height="23.4754" filterUnits="userSpaceOnUse" color-interpolation-filters="sRGB">
<feFlood flood-opacity="0" result="BackgroundImageFix"/>
<feColorMatrix in="SourceAlpha" type="matrix" values="0 0 0 0 0 0 0 0 0 0 0 0 0 0 0 0 0 0 127 0" result="hardAlpha"/>
<feOffset dx="-1" dy="1"/>
<feGaussianBlur stdDeviation="1"/>
<feColorMatrix type="matrix" values="0 0 0 0 1 0 0 0 0 0.737255 0 0 0 0 0.372549 0 0 0 0.32 0"/>
<feBlend mode="multiply" in2="BackgroundImageFix" result="effect1_dropShadow"/>
<feBlend mode="normal" in="SourceGraphic" in2="effect1_dropShadow" result="shape"/>
<feColorMatrix in="SourceAlpha" type="matrix" values="0 0 0 0 0 0 0 0 0 0 0 0 0 0 0 0 0 0 127 0" result="hardAlpha"/>
<feOffset dx="-1" dy="-2"/>
<feGaussianBlur stdDeviation="4.5"/>
<feComposite in2="hardAlpha" operator="arithmetic" k2="-1" k3="1"/>
<feColorMatrix type="matrix" values="0 0 0 0 1 0 0 0 0 0.764706 0 0 0 0 0.407843 0 0 0 0.44 0"/>
<feBlend mode="normal" in2="shape" result="effect2_innerShadow"/>
</filter>
<filter id="filter6_di" x="47.1409" y="71.5146" width="24.2447" height="23.4849" filterUnits="userSpaceOnUse" color-interpolation-filters="sRGB">
<feFlood flood-opacity="0" result="BackgroundImageFix"/>
<feColorMatrix in="SourceAlpha" type="matrix" values="0 0 0 0 0 0 0 0 0 0 0 0 0 0 0 0 0 0 127 0" result="hardAlpha"/>
<feOffset dx="1" dy="1"/>
<feGaussianBlur stdDeviation="1"/>
<feColorMatrix type="matrix" values="0 0 0 0 1 0 0 0 0 0.737255 0 0 0 0 0.372549 0 0 0 0.32 0"/>
<feBlend mode="multiply" in2="BackgroundImageFix" result="effect1_dropShadow"/>
<feBlend mode="normal" in="SourceGraphic" in2="effect1_dropShadow" result="shape"/>
<feColorMatrix in="SourceAlpha" type="matrix" values="0 0 0 0 0 0 0 0 0 0 0 0 0 0 0 0 0 0 127 0" result="hardAlpha"/>
<feOffset dx="-1" dy="-2"/>
<feGaussianBlur stdDeviation="4.5"/>
<feComposite in2="hardAlpha" operator="arithmetic" k2="-1" k3="1"/>
<feColorMatrix type="matrix" values="0 0 0 0 1 0 0 0 0 0.764706 0 0 0 0 0.407843 0 0 0 0.44 0"/>
<feBlend mode="normal" in2="shape" result="effect2_innerShadow"/>
</filter>
</defs>
</svg>
