<svg width="173" height="192" viewBox="0 0 173 192" fill="none" xmlns="http://www.w3.org/2000/svg">
<ellipse cx="86.5" cy="176.5" rx="86.5" ry="15.5" fill="#E6612C" style="mix-blend-mode:darken"/>
<path d="M66.7997 40.1309H66.795C65.7303 40.1309 64.8672 40.9963 64.8672 42.0639V56.1538C64.8672 57.2214 65.7303 58.0868 66.795 58.0868H66.7997C67.8644 58.0868 68.7275 57.2214 68.7275 56.1538V42.0639C68.7275 40.9963 67.8644 40.1309 66.7997 40.1309Z" fill="#191919"/>
<g filter="url(#filter0_i)">
<g filter="url(#filter1_i)">
<path d="M60.7281 12.6731C60.7281 12.6731 42.6391 -3.50819 22.1299 0.697826C20.7363 0.980143 19.4198 1.55998 18.2696 2.39793C16.6304 3.60046 15.4087 5.28816 14.7763 7.22344C12.6069 13.9726 15.8122 34.8304 31.1279 52.246L60.7281 46.2234V12.6731Z" fill="#FFC368"/>
<path d="M52.2873 17.0839C52.2873 17.0839 40.7575 6.76678 27.6669 9.44969C26.7794 9.62972 25.9411 9.99993 25.2095 10.535C24.163 11.2987 23.3842 12.3747 22.9844 13.6091C21.5908 17.899 23.6394 31.2064 33.4039 42.306L52.2733 38.468L52.2873 17.0839Z" fill="#FFE1DB"/>
</g>
<g filter="url(#filter2_i)">
<path d="M112.44 12.6731C112.44 12.6731 130.529 -3.50819 151.038 0.697826C152.432 0.980143 153.748 1.55998 154.898 2.39793C156.538 3.59937 157.758 5.28763 158.387 7.22344C160.557 13.9493 157.356 34.8304 142.04 52.246L112.44 46.2234V12.6731Z" fill="#FFC368"/>
<path d="M120.88 17.0839C120.88 17.0839 132.41 6.76678 145.501 9.44969C146.388 9.62972 147.227 9.99993 147.958 10.535C149.005 11.2987 149.783 12.3747 150.183 13.6091C151.577 17.899 149.528 31.2064 139.764 42.306L120.894 38.468L120.88 17.0839Z" fill="#FFE1DB"/>
</g>
</g>
<g filter="url(#filter3_i)">
<path d="M113.337 167.923C113.131 168.636 113.026 169.375 113.025 170.117C113.025 172.246 113.868 174.287 115.369 175.793C116.87 177.299 118.906 178.146 121.029 178.147H142.774C143.826 178.147 144.867 177.939 145.838 177.536C146.81 177.132 147.692 176.54 148.435 175.795C149.179 175.049 149.768 174.164 150.17 173.189C150.572 172.215 150.779 171.171 150.778 170.117C150.778 168.114 150.03 166.183 148.682 164.705C147.335 163.227 145.484 162.308 143.494 162.129C147.201 160.458 150.442 157.899 152.929 154.676C155.439 151.449 157.071 147.625 157.667 143.576C159.163 133.134 157.133 120.73 154.206 111.391L152.469 105.839C151.126 101.545 150.193 97.1326 149.682 92.6618L148.321 80.7936C147.769 75.995 146.916 71.236 145.766 66.5453L142.296 52.3949H142.166C140.256 27.8481 116.546 8.44824 87.5734 8.44824C87.081 8.44824 86.5886 8.44824 86.0962 8.44824C85.6038 8.44824 85.1114 8.44824 84.619 8.44824C55.6459 8.44824 31.9361 27.8481 30.0268 52.3949H29.8875L26.4174 66.5453C25.2671 71.236 24.4137 75.995 23.8624 80.7936L22.5013 92.6618C21.99 97.1326 21.0568 101.545 19.7141 105.839L17.9675 111.391C15.0409 120.707 13.0109 133.134 14.502 143.576C15.1001 147.624 16.7324 151.448 19.2403 154.676C21.7305 157.898 24.9719 160.457 28.6797 162.129C26.69 162.308 24.8393 163.227 23.4913 164.705C22.1434 166.183 21.3959 168.114 21.3958 170.117C21.3951 171.171 21.6017 172.215 22.0037 173.189C22.4056 174.164 22.9951 175.049 23.7384 175.795C24.4817 176.54 25.3643 177.132 26.3356 177.536C27.307 177.939 28.3482 178.147 29.3997 178.147H51.1632C53.2872 178.147 55.3242 177.301 56.8261 175.795C58.328 174.289 59.1717 172.247 59.1717 170.117C59.1711 169.375 59.0663 168.636 58.8605 167.923L76.5129 170.205C84.0244 171.365 89.3433 171.556 96.4321 170.205L113.337 167.923Z" fill="#FFC368"/>
<path fill-rule="evenodd" clip-rule="evenodd" d="M113.025 170.117C113.026 169.375 113.131 168.636 113.336 167.923L96.4319 170.205C89.3431 171.556 84.0241 171.365 76.5126 170.205L58.8603 167.923C59.0661 168.636 59.1708 169.375 59.1715 170.117C59.1715 172.247 58.3277 174.289 56.8258 175.795C55.3239 177.301 53.2869 178.147 51.1629 178.147H29.3995C28.348 178.147 27.3068 177.939 26.3354 177.536C25.364 177.132 24.4815 176.54 23.7382 175.795C22.9949 175.049 22.4054 174.164 22.0034 173.19C21.6015 172.215 21.3949 171.171 21.3955 170.117C21.3956 168.114 22.1432 166.183 23.4911 164.705C24.839 163.227 26.6898 162.308 28.6794 162.129C28.6783 162.128 28.6771 162.128 28.676 162.127C46.0016 161.321 81.3482 157.444 77.255 139.166C74.702 127.731 62.372 117.756 53.5159 110.592C49.9154 107.679 46.8891 105.231 45.3275 103.338C43.1145 100.658 39.9398 93.329 37.2864 87.203L37.2864 87.203C36.6927 85.8322 36.1251 84.5217 35.6001 83.337C34.2883 80.381 32.4955 77.6642 30.2952 75.2976L25.5772 70.2317C25.741 69.4539 25.9129 68.6778 26.0929 67.9034C36.5569 69.7742 68.9912 74.4786 76.4515 62.499C76.4515 62.499 79.1013 56.4964 79.9515 49.999C80.1038 48.8353 80.228 47.6556 80.3504 46.4918L80.3505 46.4916C81.0396 39.9437 81.6761 33.895 86.9759 33.9819C92.2755 33.8951 92.9121 39.9437 93.6012 46.4916C93.7237 47.6555 93.8478 48.8352 94.0001 49.999C94.8503 56.4964 97.5001 62.499 97.5001 62.499C104.593 73.8884 134.26 70.1973 146.158 68.1982C146.432 69.3917 146.687 70.5893 146.922 71.7907L143.656 75.2976C141.456 77.6642 139.663 80.381 138.352 83.337C137.827 84.5217 137.259 85.8323 136.665 87.203C134.012 93.329 130.837 100.658 128.624 103.338C127.063 105.231 124.036 107.679 120.436 110.592C111.58 117.756 99.2496 127.731 96.6967 139.166C92.7258 156.898 125.872 161.076 143.675 162.046C143.615 162.074 143.554 162.102 143.494 162.129C145.484 162.308 147.334 163.227 148.682 164.705C150.03 166.183 150.778 168.114 150.778 170.117C150.778 171.171 150.572 172.215 150.17 173.19C149.768 174.164 149.178 175.049 148.435 175.795C147.692 176.54 146.809 177.132 145.838 177.536C144.867 177.939 143.825 178.147 142.774 178.147H121.029C118.906 178.146 116.87 177.299 115.369 175.793C113.868 174.288 113.025 172.246 113.025 170.117Z" fill="#FFEED6"/>
</g>
<g filter="url(#filter4_di)">
<path d="M43.5741 153.046V161.43C41.5755 162.34 39.9473 163.907 38.9599 165.872C37.9725 167.838 37.6852 170.082 38.1458 172.234C38.6065 174.385 39.7873 176.314 41.4921 177.7C43.197 179.086 45.3233 179.845 47.518 179.852H67.8693C70.42 179.851 72.8658 178.834 74.669 177.025C76.4722 175.216 77.4851 172.763 77.4851 170.206V143.73L43.5741 153.046Z" fill="#FFFDF8"/>
</g>
<g filter="url(#filter5_di)">
<path d="M130.287 153.046V161.43C132.296 162.333 133.935 163.899 134.93 165.867C135.926 167.835 136.218 170.086 135.759 172.244C135.299 174.402 134.114 176.336 132.403 177.724C130.692 179.112 128.558 179.87 126.357 179.871H106.006C103.455 179.869 101.009 178.852 99.2063 177.044C97.4031 175.235 96.3901 172.782 96.3901 170.224V143.73L130.287 153.046Z" fill="#FFFDF8"/>
</g>
<path d="M71.5285 40.2241H71.5239C70.4207 40.2241 69.5264 41.1208 69.5264 42.227V56.1772C69.5264 57.2833 70.4207 58.1801 71.5239 58.1801H71.5285C72.6317 58.1801 73.526 57.2833 73.526 56.1772V42.227C73.526 41.1208 72.6317 40.2241 71.5285 40.2241Z" fill="#231D14"/>
<path d="M101.528 40.2241H101.523C100.42 40.2241 99.5259 41.1208 99.5259 42.227V56.1772C99.5259 57.2833 100.42 58.1801 101.523 58.1801H101.528C102.631 58.1801 103.526 57.2833 103.526 56.1772V42.227C103.526 41.1208 102.631 40.2241 101.528 40.2241Z" fill="#231D14"/>
<path d="M86.3045 64.0536L79.2119 59.9413C79.0373 59.8385 78.9002 59.6788 78.8222 59.487C78.7441 59.2952 78.7293 59.0819 78.7802 58.8805C78.8311 58.6791 78.9447 58.5007 79.1034 58.3732C79.2622 58.2457 79.4571 58.1761 79.6579 58.1753H93.8431C94.0439 58.1761 94.2388 58.2457 94.3975 58.3732C94.5563 58.5007 94.6699 58.6791 94.7208 58.8805C94.7716 59.0819 94.7569 59.2952 94.6788 59.487C94.6007 59.6788 94.4637 59.8385 94.289 59.9413L87.1964 64.0536C87.0604 64.1334 86.9068 64.1753 86.7505 64.1753C86.5942 64.1753 86.4406 64.1334 86.3045 64.0536Z" fill="#231D14"/>
<path d="M78.722 67.2769C77.2962 67.2769 76.3299 68.7282 76.8798 70.0436C77.666 71.9629 78.9967 73.6086 80.7068 74.7769C82.4169 75.9451 84.4313 76.5845 86.5004 76.6158H86.6676C88.7367 76.5845 90.7511 75.9451 92.4612 74.7769C94.1713 73.6086 95.5019 71.9629 96.2881 70.0436C96.8381 68.7282 95.8718 67.2769 94.446 67.2769H78.722Z" fill="#FFAAAA"/>
<defs>
<filter id="filter0_i" x="14.1665" y="-2" width="144.831" height="54.246" filterUnits="userSpaceOnUse" color-interpolation-filters="sRGB">
<feFlood flood-opacity="0" result="BackgroundImageFix"/>
<feBlend mode="normal" in="SourceGraphic" in2="BackgroundImageFix" result="shape"/>
<feColorMatrix in="SourceAlpha" type="matrix" values="0 0 0 0 0 0 0 0 0 0 0 0 0 0 0 0 0 0 127 0" result="hardAlpha"/>
<feOffset dy="-2"/>
<feGaussianBlur stdDeviation="4"/>
<feComposite in2="hardAlpha" operator="arithmetic" k2="-1" k3="1"/>
<feColorMatrix type="matrix" values="0 0 0 0 1 0 0 0 0 0.681882 0 0 0 0 0.388235 0 0 0 1 0"/>
<feBlend mode="multiply" in2="shape" result="effect1_innerShadow"/>
</filter>
<filter id="filter1_i" x="14.1665" y="-3" width="46.5616" height="55.246" filterUnits="userSpaceOnUse" color-interpolation-filters="sRGB">
<feFlood flood-opacity="0" result="BackgroundImageFix"/>
<feBlend mode="normal" in="SourceGraphic" in2="BackgroundImageFix" result="shape"/>
<feColorMatrix in="SourceAlpha" type="matrix" values="0 0 0 0 0 0 0 0 0 0 0 0 0 0 0 0 0 0 127 0" result="hardAlpha"/>
<feOffset dy="-3"/>
<feGaussianBlur stdDeviation="13.5"/>
<feComposite in2="hardAlpha" operator="arithmetic" k2="-1" k3="1"/>
<feColorMatrix type="matrix" values="0 0 0 0 1 0 0 0 0 0.67451 0 0 0 0 0.286275 0 0 0 0.18 0"/>
<feBlend mode="multiply" in2="shape" result="effect1_innerShadow"/>
</filter>
<filter id="filter2_i" x="112.44" y="-3" width="46.5574" height="55.246" filterUnits="userSpaceOnUse" color-interpolation-filters="sRGB">
<feFlood flood-opacity="0" result="BackgroundImageFix"/>
<feBlend mode="normal" in="SourceGraphic" in2="BackgroundImageFix" result="shape"/>
<feColorMatrix in="SourceAlpha" type="matrix" values="0 0 0 0 0 0 0 0 0 0 0 0 0 0 0 0 0 0 127 0" result="hardAlpha"/>
<feOffset dy="-3"/>
<feGaussianBlur stdDeviation="13.5"/>
<feComposite in2="hardAlpha" operator="arithmetic" k2="-1" k3="1"/>
<feColorMatrix type="matrix" values="0 0 0 0 1 0 0 0 0 0.67451 0 0 0 0 0.286275 0 0 0 0.18 0"/>
<feBlend mode="multiply" in2="shape" result="effect1_innerShadow"/>
</filter>
<filter id="filter3_i" x="10" y="8.44824" width="148.172" height="169.699" filterUnits="userSpaceOnUse" color-interpolation-filters="sRGB">
<feFlood flood-opacity="0" result="BackgroundImageFix"/>
<feBlend mode="normal" in="SourceGraphic" in2="BackgroundImageFix" result="shape"/>
<feColorMatrix in="SourceAlpha" type="matrix" values="0 0 0 0 0 0 0 0 0 0 0 0 0 0 0 0 0 0 127 0" result="hardAlpha"/>
<feOffset dx="-4"/>
<feGaussianBlur stdDeviation="11.5"/>
<feComposite in2="hardAlpha" operator="arithmetic" k2="-1" k3="1"/>
<feColorMatrix type="matrix" values="0 0 0 0 1 0 0 0 0 0.706953 0 0 0 0 0.2625 0 0 0 1 0"/>
<feBlend mode="multiply" in2="shape" result="effect1_innerShadow"/>
</filter>
<filter id="filter4_di" x="34.9316" y="141.73" width="43.5535" height="41.1215" filterUnits="userSpaceOnUse" color-interpolation-filters="sRGB">
<feFlood flood-opacity="0" result="BackgroundImageFix"/>
<feColorMatrix in="SourceAlpha" type="matrix" values="0 0 0 0 0 0 0 0 0 0 0 0 0 0 0 0 0 0 127 0" result="hardAlpha"/>
<feOffset dx="-1" dy="1"/>
<feGaussianBlur stdDeviation="1"/>
<feColorMatrix type="matrix" values="0 0 0 0 1 0 0 0 0 0.737255 0 0 0 0 0.372549 0 0 0 0.32 0"/>
<feBlend mode="multiply" in2="BackgroundImageFix" result="effect1_dropShadow"/>
<feBlend mode="normal" in="SourceGraphic" in2="effect1_dropShadow" result="shape"/>
<feColorMatrix in="SourceAlpha" type="matrix" values="0 0 0 0 0 0 0 0 0 0 0 0 0 0 0 0 0 0 127 0" result="hardAlpha"/>
<feOffset dx="-1" dy="-2"/>
<feGaussianBlur stdDeviation="4.5"/>
<feComposite in2="hardAlpha" operator="arithmetic" k2="-1" k3="1"/>
<feColorMatrix type="matrix" values="0 0 0 0 1 0 0 0 0 0.764706 0 0 0 0 0.407843 0 0 0 0.44 0"/>
<feBlend mode="normal" in2="shape" result="effect2_innerShadow"/>
</filter>
<filter id="filter5_di" x="95.3901" y="141.73" width="43.5807" height="41.1401" filterUnits="userSpaceOnUse" color-interpolation-filters="sRGB">
<feFlood flood-opacity="0" result="BackgroundImageFix"/>
<feColorMatrix in="SourceAlpha" type="matrix" values="0 0 0 0 0 0 0 0 0 0 0 0 0 0 0 0 0 0 127 0" result="hardAlpha"/>
<feOffset dx="1" dy="1"/>
<feGaussianBlur stdDeviation="1"/>
<feColorMatrix type="matrix" values="0 0 0 0 1 0 0 0 0 0.737255 0 0 0 0 0.372549 0 0 0 0.32 0"/>
<feBlend mode="multiply" in2="BackgroundImageFix" result="effect1_dropShadow"/>
<feBlend mode="normal" in="SourceGraphic" in2="effect1_dropShadow" result="shape"/>
<feColorMatrix in="SourceAlpha" type="matrix" values="0 0 0 0 0 0 0 0 0 0 0 0 0 0 0 0 0 0 127 0" result="hardAlpha"/>
<feOffset dx="-1" dy="-2"/>
<feGaussianBlur stdDeviation="4.5"/>
<feComposite in2="hardAlpha" operator="arithmetic" k2="-1" k3="1"/>
<feColorMatrix type="matrix" values="0 0 0 0 1 0 0 0 0 0.764706 0 0 0 0 0.407843 0 0 0 0.44 0"/>
<feBlend mode="normal" in2="shape" result="effect2_innerShadow"/>
</filter>
</defs>
</svg>
