<svg width="44" height="44" viewBox="0 0 44 44" fill="none" xmlns="http://www.w3.org/2000/svg">
<path d="M18.0576 28.7139C18.0576 28.7139 18.0576 31.9996 22.0005 31.9996C25.9433 31.9996 25.9433 28.7139 25.9433 28.7139" stroke="#262626" stroke-width="1.6"/>
<circle cx="30" cy="14" r="5" fill="#FF6E35"/>
<path fill-rule="evenodd" clip-rule="evenodd" d="M30 21V22.3368C31.1825 22.8985 32 24.1038 32 25.5C32 27.433 30.433 29 28.5 29H15.5C13.567 29 12 27.433 12 25.5C12 24.1038 12.8175 22.8985 14 22.3368V19.5C14 14.8056 17.5817 11 22 11C22.5465 11 23.0803 11.0582 23.596 11.1692C23.3809 11.6551 23.2195 12.1701 23.1192 12.7067C22.7543 12.6365 22.3801 12.6 22 12.6C18.5554 12.6 15.6 15.5965 15.6 19.5V23.3481L14.6865 23.782C14.0409 24.0887 13.6 24.7445 13.6 25.5C13.6 26.5493 14.4507 27.4 15.5 27.4H28.5C29.5493 27.4 30.4 26.5493 30.4 25.5C30.4 24.7445 29.9591 24.0887 29.3135 23.782L28.4 23.3481V20.8163C28.9139 20.9365 29.4495 21 30 21Z" fill="#262626"/>
</svg>
