<svg width="22" height="20" viewBox="0 0 22 20" fill="none" xmlns="http://www.w3.org/2000/svg">
<path d="M15.6875 1C14.6022 1 13.6072 1.3506 12.7302 2.04209C11.8894 2.70502 11.3296 3.54939 11 4.16338C10.6704 3.54935 10.1106 2.70502 9.2698 2.04209C8.39277 1.3506 7.39777 1 6.3125 1C3.28391 1 1 3.52546 1 6.87445C1 10.4925 3.84934 12.968 8.16285 16.7154C8.89535 17.3518 9.72563 18.0732 10.5886 18.8425C10.7023 18.9441 10.8484 19 11 19C11.1516 19 11.2977 18.9441 11.4114 18.8426C12.2745 18.0731 13.1047 17.3518 13.8376 16.715C18.1507 12.968 21 10.4925 21 6.87445C21 3.52546 18.7161 1 15.6875 1Z" stroke="#262626" stroke-width="1.6" stroke-linejoin="round"/>
</svg>
