<svg width="44" height="44" viewBox="0 0 44 44" fill="none" xmlns="http://www.w3.org/2000/svg">
<path d="M14.3433 23.0594L14.8 22.8425V22.3368V19.5C14.8 15.201 18.0685 11.8 22 11.8C25.9315 11.8 29.2 15.201 29.2 19.5V22.3368V22.8425L29.6567 23.0594C30.5708 23.4936 31.2 24.4241 31.2 25.5C31.2 26.9912 29.9912 28.2 28.5 28.2H15.5C14.0088 28.2 12.8 26.9912 12.8 25.5C12.8 24.4241 13.4292 23.4936 14.3433 23.0594Z" stroke="black" stroke-width="1.6"/>
<path d="M18.0571 28.7148C18.0571 28.7148 18.0571 32.0005 22 32.0005C25.9428 32.0005 25.9428 28.7148 25.9428 28.7148" stroke="#262626" stroke-width="1.6"/>
</svg>
