<svg width="44" height="44" viewBox="0 0 44 44" fill="none" xmlns="http://www.w3.org/2000/svg">
<mask id="path-1-inside-1_1648:7891" fill="white">
<path fill-rule="evenodd" clip-rule="evenodd" d="M22 11C17.5817 11 14 14.8056 14 19.5V22.3368C12.8175 22.8985 12 24.1038 12 25.5C12 27.433 13.567 29 15.5 29H28.5C30.433 29 32 27.433 32 25.5C32 24.1038 31.1825 22.8985 30 22.3368V19.5C30 14.8056 26.4183 11 22 11Z"/>
</mask>
<path d="M14 22.3368L14.6865 23.782L15.6 23.3481V22.3368H14ZM30 22.3368H28.4V23.3481L29.3135 23.782L30 22.3368ZM15.6 19.5C15.6 15.5965 18.5554 12.6 22 12.6V9.4C16.6081 9.4 12.4 14.0147 12.4 19.5H15.6ZM15.6 22.3368V19.5H12.4V22.3368H15.6ZM13.6 25.5C13.6 24.7445 14.0409 24.0887 14.6865 23.782L13.3135 20.8916C11.5941 21.7084 10.4 23.4631 10.4 25.5H13.6ZM15.5 27.4C14.4507 27.4 13.6 26.5493 13.6 25.5H10.4C10.4 28.3167 12.6833 30.6 15.5 30.6V27.4ZM28.5 27.4H15.5V30.6H28.5V27.4ZM30.4 25.5C30.4 26.5493 29.5493 27.4 28.5 27.4V30.6C31.3167 30.6 33.6 28.3167 33.6 25.5H30.4ZM29.3135 23.782C29.9591 24.0887 30.4 24.7445 30.4 25.5H33.6C33.6 23.4631 32.4059 21.7084 30.6865 20.8916L29.3135 23.782ZM28.4 19.5V22.3368H31.6V19.5H28.4ZM22 12.6C25.4446 12.6 28.4 15.5965 28.4 19.5H31.6C31.6 14.0147 27.3919 9.4 22 9.4V12.6Z" fill="#262626" mask="url(#path-1-inside-1_1648:7891)"/>
<path d="M18.0571 28.7148C18.0571 28.7148 18.0571 32.0005 22 32.0005C25.9428 32.0005 25.9428 28.7148 25.9428 28.7148" stroke="#262626" stroke-width="1.6"/>
</svg>
