<svg width="16" height="16" viewBox="0 0 16 16" fill="none" xmlns="http://www.w3.org/2000/svg">
<path fill-rule="evenodd" clip-rule="evenodd" d="M11.4 6.75C11.4 9.31812 9.31812 11.4 6.75 11.4C4.18188 11.4 2.1 9.31812 2.1 6.75C2.1 4.18188 4.18188 2.1 6.75 2.1C9.31812 2.1 11.4 4.18188 11.4 6.75ZM10.5676 11.699C9.51168 12.5147 8.18752 13 6.75 13C3.29822 13 0.5 10.2018 0.5 6.75C0.5 3.29822 3.29822 0.5 6.75 0.5C10.2018 0.5 13 3.29822 13 6.75C13 8.18752 12.5147 9.51168 11.699 10.5676L15.4407 14.3093C15.7531 14.6217 15.7531 15.1283 15.4407 15.4407C15.1283 15.7531 14.6217 15.7531 14.3093 15.4407L10.5676 11.699Z" fill="#FF6E35"/>
</svg>
