<svg width="73" height="82" viewBox="0 0 73 82" fill="none" xmlns="http://www.w3.org/2000/svg">
<path d="M36 82V72.9643V36H73C73 56.0908 60.1515 73.9305 41.0962 80.2972L36 82Z" fill="white"/>
<rect width="73" height="73" rx="36.5" fill="white"/>
<path d="M19.4941 33.9597C19.4941 31.9998 21.4998 32.0794 21.4998 32.0596L33.0117 32.0796C33.6338 32.5328 33.9999 33.2441 33.9999 33.9995C33.9999 34.7549 33.6338 35.4663 33.0117 35.9195H21.4998C21.4998 35.9195 19.4941 35.9195 19.4941 33.9597Z" fill="#FF6E35"/>
<path fill-rule="evenodd" clip-rule="evenodd" d="M35 49.5C35 48.1193 36.0989 47 37.4545 47H50.5455C51.9011 47 53 48.1193 53 49.5C53 50.8807 51.9011 52 50.5455 52H37.4545C36.0989 52 35 50.8807 35 49.5Z" fill="#FF6E35"/>
</svg>
