<svg width="73" height="82" viewBox="0 0 73 82" fill="none" xmlns="http://www.w3.org/2000/svg">
<path d="M36 82V72.9643V36H73C73 56.0908 60.1515 73.9305 41.0962 80.2972L36 82Z" fill="white"/>
<rect width="73" height="73" rx="36.5" fill="white"/>
<path fill-rule="evenodd" clip-rule="evenodd" d="M20.4943 25.9601C21.3129 24.8998 22.8615 24.6849 23.953 25.4801L33.0118 32.08C33.6339 32.5333 34 33.2446 34 34C34 34.7554 33.6339 35.4667 33.0118 35.92L23.953 42.5199C22.8615 43.3151 21.3129 43.1002 20.4943 42.0399C19.6756 40.9795 19.8968 39.4752 20.9884 38.6799L27.4118 34L20.9884 29.3201C19.8968 28.5248 19.6756 27.0205 20.4943 25.9601Z" fill="#FF6E35"/>
<path fill-rule="evenodd" clip-rule="evenodd" d="M35 49.5C35 48.1193 36.0989 47 37.4545 47H50.5455C51.9011 47 53 48.1193 53 49.5C53 50.8807 51.9011 52 50.5455 52H37.4545C36.0989 52 35 50.8807 35 49.5Z" fill="#FF6E35"/>
</svg>
