<svg width="221" height="222" viewBox="0 0 221 222" fill="none" xmlns="http://www.w3.org/2000/svg">
<mask id="path-1-inside-1" fill="white">
<path d="M220.3 98.1924C227.111 158.833 183.474 213.514 122.833 220.325C62.1924 227.136 7.51172 183.499 0.700378 122.858C-6.11096 62.2178 37.5263 7.53711 98.167 0.725768C158.808 -6.08557 213.488 37.5517 220.3 98.1924Z"/>
</mask>
<path d="M220.3 98.1924C227.111 158.833 183.474 213.514 122.833 220.325C62.1924 227.136 7.51172 183.499 0.700378 122.858C-6.11096 62.2178 37.5263 7.53711 98.167 0.725768C158.808 -6.08557 213.488 37.5517 220.3 98.1924Z" fill="white"/>
<path d="M219.306 98.304C226.056 158.396 182.813 212.582 122.721 219.331L122.945 221.319C184.134 214.446 228.166 159.27 221.293 98.0807L219.306 98.304ZM122.721 219.331C62.6296 226.081 8.44382 182.839 1.69413 122.747L-0.293373 122.97C6.57961 184.16 61.7552 228.192 122.945 221.319L122.721 219.331ZM1.69413 122.747C-5.05556 62.655 38.1868 8.46921 98.2786 1.71952L98.0554 -0.267983C36.8659 6.605 -7.16636 61.7806 -0.293373 122.97L1.69413 122.747ZM98.2786 1.71952C158.37 -5.03017 212.556 38.2122 219.306 98.304L221.293 98.0807C214.42 36.8913 159.245 -7.14097 98.0554 -0.267983L98.2786 1.71952Z" fill="#EFEBE8" mask="url(#path-1-inside-1)"/>
<path d="M112.992 106C61.4357 106 64.0135 151 64.0135 151H161.971C161.971 151 164.549 106 112.992 106Z" fill="#C4C4C4"/>
<circle cx="112.492" cy="77.5" r="21.5" fill="#C4C4C4"/>
</svg>
