<svg width="129" height="164" viewBox="0 0 129 164" fill="none" xmlns="http://www.w3.org/2000/svg">
<path d="M46.9737 35.7031H46.9695C46.0223 35.7031 45.2544 36.4731 45.2544 37.4229V49.9583C45.2544 50.9081 46.0223 51.6781 46.9695 51.6781H46.9737C47.9209 51.6781 48.6888 50.9081 48.6888 49.9583V37.4229C48.6888 36.4731 47.9209 35.7031 46.9737 35.7031Z" fill="#191919"/>
<g filter="url(#filter0_i)">
<g filter="url(#filter1_i)">
<path d="M41.5721 11.2759C41.5721 11.2759 25.4788 -3.12017 7.23228 0.621815C5.99248 0.872985 4.82114 1.38885 3.79788 2.13436C2.33956 3.20422 1.25259 4.70572 0.689979 6.42749C-1.24006 12.4321 1.6116 30.9887 15.2376 46.4829L41.5721 41.1248V11.2759Z" fill="#FFC368"/>
<path d="M34.0628 15.1988C34.0628 15.1988 23.8051 6.01999 12.1587 8.40691C11.3691 8.56708 10.6233 8.89644 9.97242 9.37245C9.04138 10.052 8.34848 11.0093 7.99278 12.1075C6.75293 15.924 8.57552 27.7633 17.2628 37.6383L34.0504 34.2237L34.0628 15.1988Z" fill="#FFE1DB"/>
</g>
<g filter="url(#filter2_i)">
<path d="M87.5791 11.2749C87.5791 11.2749 103.672 -3.12115 121.919 0.620838C123.159 0.872009 124.33 1.38788 125.353 2.13338C126.812 3.20227 127.898 4.70427 128.457 6.42652C130.387 12.4104 127.54 30.9877 113.914 46.482L87.5791 41.1238V11.2749Z" fill="#FFC368"/>
<path d="M95.0889 15.1998C95.0889 15.1998 105.347 6.02097 116.993 8.40788C117.783 8.56806 118.528 8.89742 119.179 9.37342C120.11 10.0529 120.803 11.0102 121.159 12.1084C122.399 15.925 120.576 27.7643 111.889 37.6393L95.1013 34.2247L95.0889 15.1998Z" fill="#FFE1DB"/>
</g>
</g>
<g filter="url(#filter3_i)">
<path d="M88.377 149.396C88.1939 150.031 88.1007 150.688 88.1001 151.348C88.1001 153.242 88.8502 155.059 90.1855 156.398C91.5208 157.738 93.332 158.491 95.221 158.492H114.567C115.502 158.492 116.429 158.307 117.293 157.948C118.157 157.589 118.942 157.063 119.604 156.4C120.265 155.736 120.789 154.948 121.147 154.082C121.505 153.215 121.688 152.286 121.688 151.348C121.688 149.566 121.023 147.849 119.823 146.533C118.624 145.218 116.978 144.401 115.207 144.241C118.506 142.755 121.388 140.478 123.601 137.611C125.834 134.74 127.287 131.338 127.817 127.736C129.148 118.445 127.342 107.41 124.738 99.1011L123.192 94.1615C121.998 90.3412 121.167 86.4159 120.712 82.4383L119.501 71.8795C119.011 67.6102 118.252 63.3763 117.228 59.2031L114.141 46.6138H114.025C112.327 24.7752 91.2328 7.51562 65.4562 7.51562C65.0181 7.51562 64.58 7.51562 64.1419 7.51562C63.7039 7.51562 63.2658 7.51562 62.8277 7.51562C37.0511 7.51562 15.957 24.7752 14.2584 46.6138H14.1344L11.0472 59.2031C10.0238 63.3763 9.26457 67.6102 8.77411 71.8795L7.56319 82.4383C7.10828 86.4159 6.27799 90.3412 5.08348 94.1615L3.52952 99.1011C0.925827 107.389 -0.880229 118.445 0.446416 127.736C0.978486 131.337 2.43071 134.739 4.66193 137.611C6.87736 140.477 9.76119 142.754 13.0599 144.241C11.2898 144.401 9.64318 145.218 8.44396 146.533C7.24474 147.849 6.57967 149.566 6.57957 151.348C6.57903 152.286 6.76281 153.215 7.12043 154.082C7.47804 154.948 8.00248 155.736 8.66377 156.4C9.32506 157.063 10.1102 157.589 10.9745 157.948C11.8387 158.307 12.765 158.492 13.7005 158.492H33.0629C34.9526 158.492 36.7648 157.74 38.101 156.4C39.4373 155.06 40.1879 153.243 40.1879 151.348C40.1873 150.688 40.0941 150.031 39.911 149.396L55.6159 151.427C62.2987 152.459 67.0308 152.629 73.3375 151.427L88.377 149.396Z" fill="#FFC368"/>
<path fill-rule="evenodd" clip-rule="evenodd" d="M88.1006 151.348C88.1012 150.688 88.1944 150.031 88.3775 149.396L73.338 151.427C67.0313 152.629 62.2992 152.459 55.6164 151.427L39.9115 149.396C40.0946 150.031 40.1878 150.688 40.1884 151.348C40.1884 153.243 39.4378 155.06 38.1016 156.4C36.7654 157.74 34.9531 158.492 33.0634 158.492H13.701C12.7655 158.492 11.8392 158.308 10.975 157.949C10.1108 157.589 9.32557 157.063 8.66428 156.4C8.00299 155.736 7.47856 154.949 7.12094 154.082C6.76332 153.215 6.57954 152.286 6.58008 151.348C6.58018 149.566 7.24525 147.849 8.44447 146.534C9.64369 145.218 11.2903 144.401 13.0604 144.241C13.0599 144.241 13.0595 144.241 13.0591 144.241C28.474 143.523 59.9177 140.074 56.2762 123.813C54.005 113.64 43.0352 104.765 35.1562 98.3912L35.1562 98.3911C31.9529 95.7997 29.2605 93.6215 27.8712 91.9374C25.9023 89.5535 23.0779 83.0328 20.7172 77.5827C20.189 76.3632 19.684 75.1973 19.217 74.1433C18.0499 71.5134 16.4549 69.0963 14.4973 66.9908L10.3002 62.4841C10.4459 61.7921 10.5989 61.1015 10.759 60.4124C20.069 62.0769 48.9242 66.262 55.5614 55.6042C55.5614 55.6042 57.9188 50.2639 58.6753 44.4833C58.8108 43.4479 58.9212 42.3983 59.0302 41.3629C59.6433 35.5373 60.2096 30.156 64.9247 30.2332C69.6397 30.156 70.206 35.5373 70.8191 41.3629L70.8192 41.3634C70.9281 42.3987 71.0386 43.4481 71.174 44.4833C71.9305 50.2639 74.2879 55.6042 74.2879 55.6042C80.5983 65.7373 106.993 62.453 117.578 60.6745C117.822 61.7362 118.049 62.8015 118.258 63.8702L115.352 66.9908C113.394 69.0963 111.799 71.5134 110.632 74.1433C110.165 75.1973 109.66 76.3632 109.132 77.5827L109.132 77.5829C106.771 83.033 103.947 89.5536 101.978 91.9374C100.589 93.6215 97.8964 95.7997 94.6931 98.3911C86.8141 104.765 75.8444 113.64 73.5731 123.813C70.0404 139.588 99.5279 143.306 115.367 144.169C115.314 144.193 115.261 144.217 115.208 144.241C116.978 144.401 118.625 145.218 119.824 146.534C121.023 147.849 121.688 149.566 121.688 151.348C121.689 152.286 121.505 153.215 121.147 154.082C120.79 154.949 120.265 155.736 119.604 156.4C118.943 157.063 118.158 157.589 117.293 157.949C116.429 158.308 115.503 158.492 114.567 158.492H95.2215C93.3325 158.491 91.5213 157.738 90.186 156.398C88.8507 155.059 88.1006 153.242 88.1006 151.348Z" fill="#FFEED6"/>
</g>
<g filter="url(#filter4_di)">
<path d="M26.311 136.161V143.62C24.5329 144.429 23.0843 145.824 22.2058 147.572C21.3273 149.32 21.0718 151.318 21.4816 153.232C21.8914 155.146 22.9419 156.862 24.4587 158.095C25.9755 159.328 27.8672 160.003 29.8197 160.009H47.9258C50.1951 160.008 52.3711 159.104 53.9753 157.494C55.5796 155.885 56.4808 153.703 56.4808 151.427V127.873L26.311 136.161Z" fill="#FFFDF8"/>
</g>
<path d="M51.1812 35.7871H51.177C50.1955 35.7871 49.3999 36.5849 49.3999 37.569V49.9802C49.3999 50.9643 50.1955 51.7621 51.177 51.7621H51.1812C52.1626 51.7621 52.9583 50.9643 52.9583 49.9802V37.569C52.9583 36.5849 52.1626 35.7871 51.1812 35.7871Z" fill="#231D14"/>
<path d="M77.8711 35.7871H77.867C76.8855 35.7871 76.0898 36.5849 76.0898 37.569V49.9802C76.0898 50.9643 76.8855 51.7621 77.867 51.7621H77.8711C78.8526 51.7621 79.6482 50.9643 79.6482 49.9802V37.569C79.6482 36.5849 78.8526 35.7871 77.8711 35.7871Z" fill="#231D14"/>
<path d="M64.3273 56.9876L58.0172 53.3289C57.8618 53.2375 57.7399 53.0955 57.6705 52.9248C57.601 52.7541 57.5879 52.5644 57.6331 52.3852C57.6784 52.206 57.7795 52.0474 57.9207 51.9339C58.0619 51.8204 58.2353 51.7585 58.414 51.7578H71.0342C71.2128 51.7585 71.3863 51.8204 71.5275 51.9339C71.6687 52.0474 71.7698 52.206 71.8151 52.3852C71.8603 52.5644 71.8472 52.7541 71.7777 52.9248C71.7082 53.0955 71.5863 53.2375 71.4309 53.3289L65.1208 56.9876C64.9998 57.0586 64.8631 57.0959 64.7241 57.0959C64.585 57.0959 64.4484 57.0586 64.3273 56.9876Z" fill="#231D14"/>
<path d="M57.5813 59.8535C56.3128 59.8535 55.4531 61.1447 55.9424 62.315C56.6419 64.0225 57.8257 65.4867 59.3471 66.5261C60.8686 67.5654 62.6608 68.1343 64.5016 68.1621H64.6503C66.4911 68.1343 68.2833 67.5654 69.8047 66.5261C71.3262 65.4867 72.51 64.0225 73.2095 62.315C73.6988 61.1447 72.8391 59.8535 71.5706 59.8535H57.5813Z" fill="#FFAAAA"/>
<defs>
<filter id="filter0_i" x="0.147461" y="-2" width="128.853" height="48.4829" filterUnits="userSpaceOnUse" color-interpolation-filters="sRGB">
<feFlood flood-opacity="0" result="BackgroundImageFix"/>
<feBlend mode="normal" in="SourceGraphic" in2="BackgroundImageFix" result="shape"/>
<feColorMatrix in="SourceAlpha" type="matrix" values="0 0 0 0 0 0 0 0 0 0 0 0 0 0 0 0 0 0 127 0" result="hardAlpha"/>
<feOffset dy="-2"/>
<feGaussianBlur stdDeviation="4"/>
<feComposite in2="hardAlpha" operator="arithmetic" k2="-1" k3="1"/>
<feColorMatrix type="matrix" values="0 0 0 0 1 0 0 0 0 0.681882 0 0 0 0 0.388235 0 0 0 1 0"/>
<feBlend mode="multiply" in2="shape" result="effect1_innerShadow"/>
</filter>
<filter id="filter1_i" x="0.147461" y="-2.99902" width="41.4247" height="49.482" filterUnits="userSpaceOnUse" color-interpolation-filters="sRGB">
<feFlood flood-opacity="0" result="BackgroundImageFix"/>
<feBlend mode="normal" in="SourceGraphic" in2="BackgroundImageFix" result="shape"/>
<feColorMatrix in="SourceAlpha" type="matrix" values="0 0 0 0 0 0 0 0 0 0 0 0 0 0 0 0 0 0 127 0" result="hardAlpha"/>
<feOffset dy="-3"/>
<feGaussianBlur stdDeviation="13.5"/>
<feComposite in2="hardAlpha" operator="arithmetic" k2="-1" k3="1"/>
<feColorMatrix type="matrix" values="0 0 0 0 1 0 0 0 0 0.67451 0 0 0 0 0.286275 0 0 0 0.18 0"/>
<feBlend mode="multiply" in2="shape" result="effect1_innerShadow"/>
</filter>
<filter id="filter2_i" x="87.5791" y="-3" width="41.4209" height="49.482" filterUnits="userSpaceOnUse" color-interpolation-filters="sRGB">
<feFlood flood-opacity="0" result="BackgroundImageFix"/>
<feBlend mode="normal" in="SourceGraphic" in2="BackgroundImageFix" result="shape"/>
<feColorMatrix in="SourceAlpha" type="matrix" values="0 0 0 0 0 0 0 0 0 0 0 0 0 0 0 0 0 0 127 0" result="hardAlpha"/>
<feOffset dy="-3"/>
<feGaussianBlur stdDeviation="13.5"/>
<feComposite in2="hardAlpha" operator="arithmetic" k2="-1" k3="1"/>
<feColorMatrix type="matrix" values="0 0 0 0 1 0 0 0 0 0.67451 0 0 0 0 0.286275 0 0 0 0.18 0"/>
<feBlend mode="multiply" in2="shape" result="effect1_innerShadow"/>
</filter>
<filter id="filter3_i" x="-4.00024" y="7.51562" width="132.266" height="150.977" filterUnits="userSpaceOnUse" color-interpolation-filters="sRGB">
<feFlood flood-opacity="0" result="BackgroundImageFix"/>
<feBlend mode="normal" in="SourceGraphic" in2="BackgroundImageFix" result="shape"/>
<feColorMatrix in="SourceAlpha" type="matrix" values="0 0 0 0 0 0 0 0 0 0 0 0 0 0 0 0 0 0 127 0" result="hardAlpha"/>
<feOffset dx="-4"/>
<feGaussianBlur stdDeviation="11.5"/>
<feComposite in2="hardAlpha" operator="arithmetic" k2="-1" k3="1"/>
<feColorMatrix type="matrix" values="0 0 0 0 1 0 0 0 0 0.706953 0 0 0 0 0.2625 0 0 0 1 0"/>
<feBlend mode="multiply" in2="shape" result="effect1_innerShadow"/>
</filter>
<filter id="filter4_di" x="18.291" y="125.873" width="39.1898" height="37.1364" filterUnits="userSpaceOnUse" color-interpolation-filters="sRGB">
<feFlood flood-opacity="0" result="BackgroundImageFix"/>
<feColorMatrix in="SourceAlpha" type="matrix" values="0 0 0 0 0 0 0 0 0 0 0 0 0 0 0 0 0 0 127 0" result="hardAlpha"/>
<feOffset dx="-1" dy="1"/>
<feGaussianBlur stdDeviation="1"/>
<feColorMatrix type="matrix" values="0 0 0 0 1 0 0 0 0 0.737255 0 0 0 0 0.372549 0 0 0 0.32 0"/>
<feBlend mode="multiply" in2="BackgroundImageFix" result="effect1_dropShadow"/>
<feBlend mode="normal" in="SourceGraphic" in2="effect1_dropShadow" result="shape"/>
<feColorMatrix in="SourceAlpha" type="matrix" values="0 0 0 0 0 0 0 0 0 0 0 0 0 0 0 0 0 0 127 0" result="hardAlpha"/>
<feOffset dx="-1" dy="-2"/>
<feGaussianBlur stdDeviation="4.5"/>
<feComposite in2="hardAlpha" operator="arithmetic" k2="-1" k3="1"/>
<feColorMatrix type="matrix" values="0 0 0 0 1 0 0 0 0 0.764706 0 0 0 0 0.407843 0 0 0 0.44 0"/>
<feBlend mode="normal" in2="shape" result="effect2_innerShadow"/>
</filter>
</defs>
</svg>
