<svg width="18" height="20" viewBox="0 0 18 20" fill="none" xmlns="http://www.w3.org/2000/svg">
                <path
                  d="M1 16H0.5V16.5H1V16ZM17.3536 16.3536C17.5488 16.1583 17.5488 15.8417 17.3536 15.6464L14.1716 12.4645C13.9763 12.2692 13.6597 12.2692 13.4645 12.4645C13.2692 12.6597 13.2692 12.9763 13.4645 13.1716L16.2929 16L13.4645 18.8284C13.2692 19.0237 13.2692 19.3403 13.4645 19.5355C13.6597 19.7308 13.9763 19.7308 14.1716 19.5355L17.3536 16.3536ZM0.5 0V16H1.5V0H0.5ZM1 16.5H17V15.5H1V16.5Z"
                  fill="#262626"
                />
              </svg>