 <svg width="49" height="48" viewBox="0 0 49 48" fill="none" xmlns="http://www.w3.org/2000/svg">
            <rect width="49" height="48" rx="16" fill="#FF6E35" />
            <path
              d="M24 32C24 32.5523 24.4477 33 25 33C25.5523 33 26 32.5523 26 32H24ZM25.7071 15.2929C25.3166 14.9024 24.6834 14.9024 24.2929 15.2929L17.9289 21.6569C17.5384 22.0474 17.5384 22.6805 17.9289 23.0711C18.3195 23.4616 18.9526 23.4616 19.3431 23.0711L25 17.4142L30.6569 23.0711C31.0474 23.4616 31.6805 23.4616 32.0711 23.0711C32.4616 22.6805 32.4616 22.0474 32.0711 21.6569L25.7071 15.2929ZM26 32V16H24V32H26Z"
              fill="white"
            />
          </svg>