<svg width="32" height="32" viewBox="0 0 32 32" fill="none" xmlns="http://www.w3.org/2000/svg">
<path fill-rule="evenodd" clip-rule="evenodd" d="M21.5 30C26.1944 30 30 26.1944 30 21.5C30 16.8056 26.1944 13 21.5 13C16.8056 13 13 16.8056 13 21.5C13 26.1944 16.8056 30 21.5 30Z" fill="white"/>
<circle cx="21.5" cy="21.5" r="7.5" fill="white"/>
<path fill-rule="evenodd" clip-rule="evenodd" d="M21.5 28.4C25.3108 28.4 28.4 25.3108 28.4 21.5C28.4 17.6892 25.3108 14.6 21.5 14.6C17.6892 14.6 14.6 17.6892 14.6 21.5C14.6 25.3108 17.6892 28.4 21.5 28.4ZM21.5 30C26.1944 30 30 26.1944 30 21.5C30 16.8056 26.1944 13 21.5 13C16.8056 13 13 16.8056 13 21.5C13 26.1944 16.8056 30 21.5 30Z" fill="#B6B2B0"/>
<path fill-rule="evenodd" clip-rule="evenodd" d="M22.7612 23.096C23.0249 23.2551 23.0784 23.5559 22.8806 23.768L20.9776 25.808C20.8649 25.9289 20.6879 26 20.5 26C20.3121 26 20.1351 25.9289 20.0224 25.808L18.1194 23.768C17.9216 23.5559 17.9751 23.2551 18.2388 23.096C18.5026 22.937 18.8768 22.98 19.0746 23.192L20.5 24.72L21.9254 23.192C22.1232 22.98 22.4974 22.937 22.7612 23.096Z" fill="#B6B2B0"/>
<path fill-rule="evenodd" clip-rule="evenodd" d="M18.3125 19.9375C18.5886 19.9375 18.8125 20.1614 18.8125 20.4375L18.8125 21.5C18.8125 21.7761 18.5886 22 18.3125 22C18.0364 22 17.8125 21.7761 17.8125 21.5L17.8125 20.4375C17.8125 20.1614 18.0364 19.9375 18.3125 19.9375Z" fill="#B6B2B0"/>
<path fill-rule="evenodd" clip-rule="evenodd" d="M22.5 19.9375C22.7761 19.9375 23 20.1614 23 20.4375L23 21.5C23 21.7761 22.7761 22 22.5 22C22.2239 22 22 21.7761 22 21.5L22 20.4375C22 20.1614 22.2239 19.9375 22.5 19.9375Z" fill="#B6B2B0"/>
<path d="M19 10.5C19 15.1944 15.1944 19 10.5 19C5.80558 19 2 15.1944 2 10.5C2 5.80558 5.80558 2 10.5 2C15.1944 2 19 5.80558 19 10.5Z" fill="white"/>
<circle cx="10.5" cy="10.5" r="7.5" fill="white"/>
<path fill-rule="evenodd" clip-rule="evenodd" d="M10.5 17.4C14.3108 17.4 17.4 14.3108 17.4 10.5C17.4 6.68924 14.3108 3.6 10.5 3.6C6.68924 3.6 3.6 6.68924 3.6 10.5C3.6 14.3108 6.68924 17.4 10.5 17.4ZM10.5 19C15.1944 19 19 15.1944 19 10.5C19 5.80558 15.1944 2 10.5 2C5.80558 2 2 5.80558 2 10.5C2 15.1944 5.80558 19 10.5 19Z" fill="#B6B2B0"/>
<path d="M13.7982 13.2308L13.7134 13.3278C12.4979 14.7179 10.3193 14.6652 9.17251 13.2177C9.10275 13.1297 9.16546 13 9.2778 13H13.6934C13.813 13 13.8769 13.1408 13.7982 13.2308Z" fill="#B6B2B0" stroke="#B6B2B0" stroke-linecap="round" stroke-linejoin="round"/>
<path fill-rule="evenodd" clip-rule="evenodd" d="M9.5 9C9.77614 9 10 9.21707 10 9.48485L10 10.5152C10 10.7829 9.77614 11 9.5 11C9.22386 11 9 10.7829 9 10.5152L9 9.48485C9 9.21707 9.22386 9 9.5 9Z" fill="#B6B2B0"/>
<path fill-rule="evenodd" clip-rule="evenodd" d="M13.6875 9C13.9636 9 14.1875 9.22386 14.1875 9.5L14.1875 10.5625C14.1875 10.8386 13.9636 11.0625 13.6875 11.0625C13.4114 11.0625 13.1875 10.8386 13.1875 10.5625L13.1875 9.5C13.1875 9.22386 13.4114 9 13.6875 9Z" fill="#B6B2B0"/>
<path d="M23.8679 9.36794C23.8679 9.71702 24.1509 10 24.5 10C24.8491 10 25.1321 9.71702 25.1321 9.36794V8.13206H26.3679C26.717 8.13206 27 7.84908 27 7.5C27 7.15092 26.717 6.86794 26.3679 6.86794H25.1321V5.63206C25.1321 5.28298 24.8491 5 24.5 5C24.1509 5 23.8679 5.28298 23.8679 5.63206V6.86794H22.6321C22.283 6.86794 22 7.15092 22 7.5C22 7.84908 22.283 8.13206 22.6321 8.13206H23.8679V9.36794Z" fill="#B6B2B0"/>
<path d="M5 25.0467C5 25.4016 5.28772 25.6894 5.64265 25.6894H9.35735C9.71228 25.6894 10 25.4016 10 25.0467C10 24.6918 9.71228 24.4041 9.35735 24.4041H5.64265C5.28772 24.4041 5 24.6918 5 25.0467ZM5 22.6427C5 22.9976 5.28772 23.2853 5.64265 23.2853H9.35735C9.71228 23.2853 10 22.9976 10 22.6427C10 22.2877 9.71228 22 9.35735 22H5.64265C5.28772 22 5 22.2877 5 22.6427Z" fill="#B6B2B0"/>
</svg>
