<svg width="32" height="32" viewBox="0 0 32 32" fill="none" xmlns="http://www.w3.org/2000/svg">
<path d="M29 16C29 23.1797 23.1797 29 16 29C8.8203 29 3 23.1797 3 16C3 8.8203 8.8203 3 16 3C23.1797 3 29 8.8203 29 16Z" fill="white"/>
<path fill-rule="evenodd" clip-rule="evenodd" d="M3.80001 16.0002C3.80001 9.26232 9.26214 3.8002 16 3.8002C22.7379 3.8002 28.2 9.26232 28.2 16.0002C28.2 22.7381 22.7379 28.2002 16 28.2002C9.26214 28.2002 3.80001 22.7381 3.80001 16.0002ZM16 2.2002C8.37848 2.2002 2.20001 8.37867 2.20001 16.0002C2.20001 23.6217 8.37848 29.8002 16 29.8002C23.6215 29.8002 29.8 23.6217 29.8 16.0002C29.8 8.37867 23.6215 2.2002 16 2.2002ZM19.4 12.0002C19.4 13.878 17.8778 15.4002 16 15.4002C14.1222 15.4002 12.6 13.878 12.6 12.0002C12.6 10.1225 14.1222 8.60024 16 8.60024C17.8778 8.60024 19.4 10.1225 19.4 12.0002ZM21 12.0002C21 14.7617 18.7614 17.0002 16 17.0002C13.2386 17.0002 11 14.7617 11 12.0002C11 9.23882 13.2386 7.00024 16 7.00024C18.7614 7.00024 21 9.23882 21 12.0002Z" fill="#B6B2B0"/>
<path d="M6.5 24.5C6.5 24.5 9.5 19 16 19C22.5 19 25.5 24.5 25.5 24.5" stroke="#B6B2B0" stroke-width="1.6"/>
</svg>
