<svg width="32" height="32" viewBox="0 0 32 32" fill="none" xmlns="http://www.w3.org/2000/svg">
<path fill-rule="evenodd" clip-rule="evenodd" d="M16.0002 3.8002C9.26232 3.8002 3.8002 9.26232 3.8002 16.0002C3.8002 18.7695 4.72292 21.3234 6.27769 23.371C6.32438 23.3052 6.37454 23.236 6.42817 23.1637C6.83702 22.613 7.4523 21.8815 8.28418 21.1494C9.95057 19.683 12.506 18.2 16.0002 18.2C19.4944 18.2 22.0498 19.683 23.7162 21.1494C24.5481 21.8815 25.1633 22.613 25.5722 23.1637C25.6258 23.236 25.676 23.3052 25.7227 23.371C27.2775 21.3234 28.2002 18.7696 28.2002 16.0002C28.2002 9.26232 22.7381 3.8002 16.0002 3.8002ZM24.6357 24.6181C24.552 24.4886 24.4361 24.3177 24.2875 24.1175C23.9308 23.637 23.3898 22.9935 22.6592 22.3506C21.2006 21.067 19.006 19.8 16.0002 19.8C12.9944 19.8 10.7998 21.067 9.34119 22.3506C8.61056 22.9935 8.06959 23.637 7.71282 24.1175C7.56423 24.3176 7.44833 24.4886 7.36465 24.618C9.57311 26.831 12.6268 28.2002 16.0002 28.2002C19.3736 28.2002 22.4273 26.831 24.6357 24.6181ZM2.2002 16.0002C2.2002 8.37867 8.37867 2.2002 16.0002 2.2002C23.6217 2.2002 29.8002 8.37867 29.8002 16.0002C29.8002 23.6217 23.6217 29.8002 16.0002 29.8002C8.37867 29.8002 2.2002 23.6217 2.2002 16.0002ZM16.0002 15.4002C17.8779 15.4002 19.4002 13.878 19.4002 12.0002C19.4002 10.1225 17.8779 8.60024 16.0002 8.60024C14.1224 8.60024 12.6002 10.1225 12.6002 12.0002C12.6002 13.878 14.1224 15.4002 16.0002 15.4002ZM16.0002 17.0002C18.7616 17.0002 21.0002 14.7617 21.0002 12.0002C21.0002 9.23882 18.7616 7.00024 16.0002 7.00024C13.2388 7.00024 11.0002 9.23882 11.0002 12.0002C11.0002 14.7617 13.2388 17.0002 16.0002 17.0002Z" fill="#B6B2B0"/>
</svg>
