<svg width="32" height="32" viewBox="0 0 32 32" fill="none" xmlns="http://www.w3.org/2000/svg">
<path fill-rule="evenodd" clip-rule="evenodd" d="M16.6333 4.51843L17.6464 3.28009L27.2797 11.1618C28.1154 11.8456 28.6 12.8683 28.6 13.9481V25.0003C28.6 26.4363 27.436 27.6003 26 27.6003H21C19.5641 27.6003 18.4 26.4363 18.4 25.0003V21.0003C18.4 19.6748 17.3255 18.6003 16 18.6003C14.6745 18.6003 13.6 19.6748 13.6 21.0003V25.0003C13.6 26.4363 12.436 27.6003 11 27.6003H6.00002C4.56408 27.6003 3.40002 26.4363 3.40002 25.0003V13.9481C3.40002 12.8683 3.88468 11.8456 4.72037 11.1618L14.3536 3.28009L15.3668 4.51843L5.73355 12.4002C5.26928 12.78 5.00002 13.3482 5.00002 13.9481V25.0003C5.00002 25.5526 5.44774 26.0003 6.00002 26.0003H11C11.5523 26.0003 12 25.5526 12 25.0003V21.0003C12 18.7912 13.7909 17.0003 16 17.0003C18.2092 17.0003 20 18.7912 20 21.0003V25.0003C20 25.5526 20.4477 26.0003 21 26.0003H26C26.5523 26.0003 27 25.5526 27 25.0003V13.9481C27 13.3482 26.7308 12.78 26.2665 12.4002L16.6333 4.51843ZM16.6333 4.51843C16.2649 4.21704 15.7352 4.21704 15.3668 4.51843L14.3536 3.28009C15.3114 2.49648 16.6887 2.49648 17.6464 3.28009L16.6333 4.51843Z" fill="#B6B2B0"/>
</svg>
